<svg xmlns="http://www.w3.org/2000/svg"><symbol id="arrow" viewBox="0 0 9 14"><g fill="none" fill-rule="evenodd"><path d="M-6-5h24v24H-6z"/><path stroke="#000" stroke-width="2" stroke-linecap="round" d="M7.657 12.314L2 6.657 7.657 1h0"/></g></symbol><symbol id="calendar" viewBox="0 0 14 14"><path d="M1 5v8h12V5H1zm11-3h2v12H0V2h2V0h2v2h6V0h2v2zM2 9v2h2V9H2zm0-3v2h2V6H2zm3 0v2h2V6H5z"/></symbol><symbol id="close" viewBox="0 0 13 13"><path d="M6.364 4.95L2.121.707A1 1 0 0 0 .707 2.121L4.95 6.364.707 10.607a1 1 0 1 0 1.414 1.414l4.243-4.243 4.243 4.243a1 1 0 0 0 1.414-1.414L7.778 6.364l4.243-4.243A1 1 0 1 0 10.607.707L6.364 4.95z"/></symbol><symbol id="edit" viewBox="0 0 12 12"><path d="M11.805 2.695a.664.664 0 0 0 0-.94l-1.56-1.56a.664.664 0 0 0-.94 0L8.08 1.415l2.5 2.5 1.226-1.22zM0 9.5V12h2.5l7.372-7.379-2.5-2.5L0 9.501z"/></symbol><symbol id="emoji1" viewBox="0 0 90 90"><text font-family="AppleColorEmoji, Apple Color Emoji" font-size="80" transform="translate(-224 -227)"><tspan x="225" y="306">&#x1F645;&#x1F3FB;</tspan></text></symbol><symbol id="emoji2" viewBox="0 0 90 90"><text font-family="AppleColorEmoji, Apple Color Emoji" font-size="70" transform="translate(-94 -227)"><tspan x="103" y="305">&#x1F389;</tspan></text></symbol></svg>